<?xml version="1.0" standalone="no"?>
<!DOCTYPE svg PUBLIC "-//W3C//DTD SVG 20010904//EN"
 "http://www.w3.org/TR/2001/REC-SVG-20010904/DTD/svg10.dtd">
<svg version="1.0" xmlns="http://www.w3.org/2000/svg"
 width="1094.000000pt" height="697.000000pt" viewBox="0 0 1094.000000 697.000000"
 preserveAspectRatio="xMidYMid meet">

<g transform="translate(0.000000,697.000000) scale(0.100000,-0.100000)"
fill="#000000" stroke="none">
<path d="M1510 5980 c-20 -20 -20 -33 -20 -2590 l0 -2570 21 -19 c26 -24 36
-34 60 -60 l19 -21 4280 0 c4267 0 4280 0 4300 20 20 20 20 33 20 2590 0 2535
0 2570 -19 2587 -25 22 -35 32 -61 61 l-20 22 -4280 0 c-4267 0 -4280 0 -4300
-20z m8560 -2590 l0 -2550 -4260 0 -4260 0 0 2550 0 2550 4260 0 4260 0 0
-2550z"/>
<path d="M6904 5349 c-3 -6 1 -18 10 -27 15 -15 17 -15 32 0 19 19 11 38 -16
38 -10 0 -22 -5 -26 -11z"/>
<path d="M4266 5329 c-27 -22 -34 -56 -16 -89 6 -12 34 -26 66 -36 58 -17 74
-34 54 -59 -18 -21 -57 -19 -77 5 -10 11 -28 20 -40 20 -26 0 -27 -1 -12 -33
29 -64 165 -63 187 2 17 50 -16 91 -85 106 -42 8 -60 30 -43 50 7 8 23 15 35
15 12 0 28 -7 35 -15 15 -19 60 -20 60 -2 0 8 -10 23 -23 35 -31 30 -104 30
-141 1z"/>
<path d="M4480 5220 l0 -130 25 0 c24 0 25 2 25 70 0 55 3 71 17 79 11 6 24 6
35 0 15 -8 18 -23 18 -79 l0 -70 30 0 30 0 0 64 c0 80 -12 113 -46 128 -21 10
-31 9 -55 -4 l-29 -17 0 44 c0 41 -2 45 -25 45 l-25 0 0 -130z"/>
<path d="M5302 5244 c3 -102 4 -107 31 -130 21 -18 40 -24 77 -24 37 0 56 6
77 24 27 23 28 28 31 130 l4 106 -26 0 c-26 0 -26 -1 -26 -77 0 -43 -3 -88 -7
-101 -8 -33 -49 -47 -79 -27 -22 14 -24 22 -24 110 l0 95 -31 0 -31 0 4 -106z"/>
<path d="M5570 5220 l0 -130 25 0 c23 0 25 4 25 45 0 40 2 45 23 45 17 0 28
-11 45 -45 18 -38 26 -45 51 -45 l29 0 -26 48 -26 49 22 28 c29 37 28 80 -3
110 -21 22 -33 25 -95 25 l-70 0 0 -130z m124 68 c22 -31 5 -58 -39 -58 -34 0
-35 1 -35 40 0 38 2 40 29 40 19 0 35 -8 45 -22z"/>
<path d="M5800 5220 l0 -130 85 0 c78 0 85 2 85 20 0 18 -7 20 -55 20 l-55 0
0 110 0 110 -30 0 -30 0 0 -130z"/>
<path d="M6116 5329 c-27 -22 -34 -56 -16 -89 6 -12 34 -26 66 -36 58 -17 74
-34 54 -59 -18 -21 -57 -19 -77 5 -10 11 -28 20 -40 20 -26 0 -27 -1 -12 -33
29 -64 165 -63 187 2 17 50 -16 91 -85 106 -42 8 -60 30 -43 50 7 8 23 15 35
15 12 0 28 -7 35 -15 15 -19 60 -20 60 -2 0 8 -10 23 -23 35 -31 30 -104 30
-141 1z"/>
<path d="M5090 5305 c0 -14 -4 -25 -10 -25 -5 0 -10 -7 -10 -15 0 -8 5 -15 10
-15 6 0 10 -28 10 -63 0 -72 17 -97 63 -97 33 0 38 35 7 43 -17 4 -20 14 -20
57 0 43 3 53 20 57 11 3 20 11 20 18 0 7 -9 15 -20 18 -12 3 -20 14 -20 26 0
16 -6 21 -25 21 -20 0 -25 -5 -25 -25z"/>
<path d="M4745 5278 c-46 -27 -62 -81 -41 -133 17 -40 42 -55 91 -55 54 0 85
35 85 98 0 38 -5 53 -24 71 -28 26 -83 36 -111 19z m75 -48 c27 -50 -8 -119
-47 -94 -22 13 -29 79 -12 100 17 20 47 17 59 -6z"/>
<path d="M4992 5274 c-12 -8 -22 -10 -22 -5 0 6 -11 11 -25 11 -25 0 -25 0
-25 -95 0 -95 0 -95 25 -95 24 0 25 3 25 56 0 68 13 94 45 94 20 0 25 5 25 25
0 29 -16 32 -48 9z"/>
<path d="M6380 5283 c-8 -3 -25 -15 -37 -26 -34 -30 -32 -109 2 -142 33 -34
93 -34 132 -1 25 22 26 25 10 32 -10 3 -29 1 -41 -6 -34 -18 -70 -9 -74 18 -3
21 0 22 62 22 63 0 66 1 66 24 0 50 -72 98 -120 79z m58 -45 c21 -21 13 -28
-28 -28 -22 0 -40 4 -40 8 0 14 23 32 40 32 9 0 21 -5 28 -12z"/>
<path d="M6607 5273 c-11 -11 -17 -13 -17 -5 0 7 -11 12 -25 12 -25 0 -25 0
-25 -95 0 -95 0 -95 25 -95 24 0 25 2 25 63 0 68 10 87 47 87 18 0 23 6 23 25
0 30 -27 34 -53 8z"/>
<path d="M7045 5278 c-27 -16 -42 -38 -49 -71 -7 -35 16 -92 42 -106 50 -27
132 -2 132 40 0 23 -32 26 -50 4 -15 -18 -42 -19 -58 -3 -20 20 -15 86 7 98
21 10 51 4 51 -11 0 -5 11 -9 25 -9 53 0 13 57 -46 66 -19 2 -43 -1 -54 -8z"/>
<path d="M7243 5266 c-17 -14 -33 -39 -37 -56 -7 -38 15 -94 42 -109 46 -25
132 -2 132 35 0 16 -31 19 -47 3 -6 -6 -23 -9 -39 -7 -21 2 -30 9 -32 26 -3
21 0 22 64 22 l67 0 -7 32 c-8 43 -34 67 -77 74 -28 5 -41 1 -66 -20z m85 -28
c21 -21 13 -28 -28 -28 -22 0 -40 4 -40 8 0 14 23 32 40 32 9 0 21 -5 28 -12z"/>
<path d="M6682 5268 c3 -7 18 -50 34 -95 28 -79 30 -83 59 -83 30 0 32 3 62
95 l31 95 -27 0 c-24 0 -29 -5 -40 -52 -22 -87 -27 -88 -48 -18 -17 59 -22 65
-47 68 -21 3 -27 0 -24 -10z"/>
<path d="M6900 5185 l0 -95 30 0 30 0 0 95 0 95 -30 0 -30 0 0 -95z"/>
<path d="M2050 4581 c0 -61 3 -72 22 -85 31 -22 74 -20 98 4 26 26 30 150 5
150 -12 0 -15 -14 -15 -65 0 -54 -3 -66 -20 -75 -14 -8 -26 -8 -40 0 -17 9
-20 21 -20 75 0 51 -3 65 -15 65 -12 0 -15 -14 -15 -69z"/>
<path d="M2220 4565 c0 -67 3 -85 14 -85 9 0 16 12 18 32 4 44 24 46 49 4 11
-20 27 -36 35 -36 18 0 18 10 -2 38 -14 20 -14 24 0 44 36 51 9 88 -65 88
l-49 0 0 -85z m88 56 c25 -16 9 -46 -26 -49 -30 -3 -32 -1 -32 27 0 26 4 31
23 31 12 0 28 -4 35 -9z"/>
<path d="M2380 4565 l0 -85 55 0 c62 0 75 17 18 22 l-38 3 -3 73 c-2 55 -6 72
-17 72 -12 0 -15 -17 -15 -85z"/>
<path d="M2520 4605 c0 -8 7 -15 15 -15 8 0 15 7 15 15 0 8 -7 15 -15 15 -8 0
-15 -7 -15 -15z"/>
<path d="M2525 4530 c-4 -6 -3 -16 3 -22 6 -6 12 -6 17 2 4 6 3 16 -3 22 -6 6
-12 6 -17 -2z"/>
<path d="M2059 4351 l-29 -29 0 -272 0 -272 29 -29 29 -29 3722 0 3722 0 29
29 29 29 0 272 0 272 -29 29 -29 29 -3722 0 -3722 0 -29 -29z m7499 -298 c2
-252 2 -263 -18 -283 -20 -20 -21 -20 -3733 -18 l-3712 3 -3 262 c-2 252 -2
263 18 283 20 20 21 20 3733 18 l3712 -3 3 -262z"/>
<path d="M2050 3220 c-19 -19 -20 -33 -20 -281 l0 -261 34 -34 34 -34 3741 0
c3728 0 3741 0 3761 20 19 19 20 33 20 281 l0 261 -34 34 -34 34 -3741 0
c-3728 0 -3741 0 -3761 -20z m3166 -250 c37 -94 38 -100 16 -100 -11 0 -22 9
-25 20 -3 13 -14 20 -30 20 -16 0 -26 -7 -30 -20 -3 -12 -14 -20 -26 -20 -20
0 -20 1 5 68 14 37 27 73 29 80 10 29 41 5 61 -48z m154 -18 l0 -77 -45 -11
c-24 -6 -42 -8 -40 -6 3 3 -3 11 -13 18 -11 8 -16 25 -16 54 2 48 16 62 57 57
21 -3 26 0 22 11 -7 18 2 32 21 32 11 0 14 -17 14 -78z m130 -2 c0 -61 -3 -80
-14 -80 -7 0 -27 -3 -44 -6 -25 -5 -32 -2 -43 17 -15 29 -14 76 2 95 6 8 25
14 41 14 25 0 29 3 25 20 -4 15 0 20 14 20 17 0 19 -8 19 -80z m133 30 c12
-27 24 -50 28 -50 3 0 13 23 23 50 13 36 23 50 37 50 17 0 19 -8 19 -80 0 -64
-3 -80 -15 -80 -11 0 -15 11 -16 38 l0 37 -16 -37 c-9 -24 -22 -38 -33 -38
-11 0 -23 14 -33 38 l-15 37 -1 -37 c-1 -29 -5 -38 -18 -38 -16 0 -18 10 -16
77 1 43 2 79 3 81 0 1 7 2 16 2 9 0 24 -21 37 -50z m555 -33 c3 -72 1 -77 -18
-77 -18 0 -20 6 -20 81 0 71 2 80 18 77 14 -3 17 -16 20 -81z m209 71 c-2 -7
-10 -12 -16 -10 -6 1 -11 -2 -11 -8 0 -5 7 -10 15 -10 8 0 15 -7 15 -15 0 -8
-7 -15 -15 -15 -11 0 -15 -12 -15 -45 0 -37 -3 -45 -18 -45 -14 0 -18 7 -15
33 1 17 -3 42 -9 55 -8 16 -9 26 -2 30 6 4 13 15 17 25 4 10 17 17 33 17 16 0
24 -5 21 -12z m-533 -50 c9 -12 16 -33 16 -45 0 -28 -33 -63 -60 -63 -49 0
-79 79 -44 114 23 24 70 20 88 -6z m96 7 c0 -8 -6 -15 -14 -15 -17 0 -26 -22
-26 -61 0 -19 -5 -29 -15 -29 -12 0 -15 13 -15 60 l0 60 35 0 c24 0 35 -5 35
-15z m104 -1 c9 -8 16 -24 16 -35 0 -16 -7 -19 -40 -19 -22 0 -40 -5 -40 -10
0 -16 31 -25 39 -11 4 6 15 9 24 5 22 -8 12 -23 -26 -39 -28 -12 -32 -11 -54
13 -27 29 -29 58 -7 90 18 26 65 30 88 6z m234 4 c7 -7 12 -34 12 -60 0 -40
-3 -48 -18 -48 -15 0 -18 7 -17 33 2 41 -4 57 -21 57 -10 0 -14 -13 -14 -45 0
-38 -3 -45 -20 -45 -18 0 -20 7 -20 60 l0 60 43 0 c24 0 48 -5 55 -12z m211
-19 c20 -36 8 -74 -29 -89 -25 -10 -34 -10 -55 4 -30 20 -35 75 -9 101 25 24
75 16 93 -16z"/>
<path d="M5167 2951 c-3 -14 0 -21 9 -21 16 0 18 9 5 28 -6 10 -10 9 -14 -7z"/>
<path d="M5294 2946 c-8 -21 -1 -49 13 -53 15 -5 35 31 27 51 -8 20 -33 21
-40 2z"/>
<path d="M5427 2953 c-10 -9 -8 -35 2 -52 8 -12 12 -12 25 -2 17 14 22 46 6
36 -6 -3 -7 1 -4 9 6 16 -16 23 -29 9z"/>
<path d="M5797 2941 c-7 -27 17 -60 33 -45 16 16 8 58 -11 62 -10 2 -19 -5
-22 -17z"/>
<path d="M6005 2950 c-3 -5 3 -10 14 -10 12 0 21 5 21 10 0 6 -6 10 -14 10 -8
0 -18 -4 -21 -10z"/>
<path d="M6435 2939 c-9 -27 19 -59 36 -42 15 15 7 57 -13 61 -10 2 -19 -6
-23 -19z"/>
<path d="M2059 2131 l-29 -29 0 -243 0 -242 44 -43 43 -44 3722 0 3723 0 29
29 29 29 0 243 0 242 -44 43 -43 44 -3722 0 -3723 0 -29 -29z m3463 -198 c24
-21 23 -33 -2 -33 -11 0 -20 5 -20 10 0 6 -9 10 -21 10 -33 0 -19 -32 18 -42
44 -11 56 -53 23 -80 -25 -21 -38 -22 -74 -8 -16 6 -26 17 -26 30 0 23 25 27
34 5 7 -19 30 -19 46 0 10 12 7 16 -16 25 -46 16 -59 26 -62 47 -7 46 62 71
100 36z m68 -3 c0 -14 7 -20 23 -20 35 0 47 -19 47 -72 0 -35 -4 -48 -14 -48
-10 0 -16 14 -18 43 -2 29 -8 42 -18 42 -10 0 -16 -13 -18 -42 -2 -33 -7 -43
-21 -43 -16 0 -17 9 -15 78 3 91 0 82 19 82 8 0 15 -9 15 -20z m350 -5 c0 -8
5 -15 10 -15 6 0 10 -7 10 -15 0 -8 -4 -15 -10 -15 -5 0 -10 -16 -10 -36 0
-21 4 -33 10 -29 6 3 10 -1 10 -9 0 -22 -17 -28 -40 -16 -15 8 -20 21 -20 50
0 45 -6 51 -37 39 -19 -7 -23 -16 -23 -49 0 -29 -4 -40 -15 -40 -12 0 -15 13
-15 61 l0 61 42 -4 c34 -2 43 1 46 15 4 21 42 23 42 2z m-166 -31 c24 -24 20
-80 -6 -98 -12 -9 -28 -16 -34 -16 -21 0 -53 35 -58 63 -9 53 60 89 98 51z
m294 4 c7 -7 12 -22 12 -34 0 -19 -6 -23 -40 -26 -32 -2 -38 -6 -30 -18 8 -13
13 -13 31 -2 30 19 53 -3 25 -24 -19 -13 -88 -16 -80 -2 2 4 0 9 -6 13 -16 10
-12 72 6 89 18 19 65 21 82 4z m120 0 c18 -18 16 -108 -2 -108 -10 0 -16 14
-18 42 -2 31 -8 44 -20 46 -15 3 -18 -4 -18 -42 0 -38 -3 -46 -18 -46 -15 0
-18 8 -16 53 1 28 2 55 3 60 2 12 76 8 89 -5z"/>
<path d="M5714 1866 c-9 -24 0 -51 18 -54 19 -4 35 38 23 57 -9 16 -35 13 -41
-3z"/>
<path d="M6005 1870 c-4 -6 5 -10 20 -10 15 0 24 4 20 10 -3 6 -12 10 -20 10
-8 0 -17 -4 -20 -10z"/>
</g>
</svg>
